<?xml version="1.0" encoding="UTF-8"?>
<svg version="1.1" width="1024" height="1536" viewBox="0 0 1024 1536" xmlns="http://www.w3.org/2000/svg">
 <g fill="#5c5854">
  <rect x="448" width="128" height="1536"/>
  <rect y="448" width="1024" height="128"/>
  <rect y="960" width="1024" height="128"/>
 </g>
 <g fill="#5c5854">
  <rect x="448" width="128" height="1536"/>
  <rect y="448" width="1024" height="128"/>
  <rect y="960" width="1024" height="128"/>
 </g>
 <g fill="#5c5854">
  <rect x="448" width="128" height="1536"/>
  <rect y="448" width="1024" height="128"/>
  <rect y="960" width="1024" height="128"/>
 </g>
 <g fill="#5c5854">
  <rect x="448" width="128" height="1536"/>
  <rect y="448" width="1024" height="128"/>
  <rect y="960" width="1024" height="128"/>
 </g>
 <g fill="#5c5854">
  <rect x="448" width="128" height="1536"/>
  <rect y="448" width="1024" height="128"/>
  <rect y="960" width="1024" height="128"/>
 </g>
 <g fill="#5c5854">
  <rect x="448" width="128" height="1536"/>
  <rect y="448" width="1024" height="128"/>
  <rect y="960" width="1024" height="128"/>
 </g>
 <g fill="#5c5854">
  <rect x="448" width="128" height="1536"/>
  <rect y="448" width="1024" height="128"/>
  <rect y="960" width="1024" height="128"/>
 </g>
 <g fill="#5c5854">
  <rect x="448" width="128" height="1536"/>
  <rect y="448" width="1024" height="128"/>
  <rect y="960" width="1024" height="128"/>
 </g>
</svg>
